<svg xmlns="http://www.w3.org/2000/svg" width="560" height="300" viewBox="0 0 560 300" fill="none"><title>An urban harbor inspired by Milan’s Darsena</title><desc>A quiet basin, two entrance canals, stone quays and terracotta buildings, drawn as a small abstract city plan.</desc><g stroke="#DBDDCF" stroke-width="1.5"><path d="M12 78h141V22M406 20v59h144M12 230h90v49M437 223h107"/><path d="M23 69h123V14M417 16v51h135M19 241h71v39M442 235h104"/><rect x="42" y="101" width="44" height="74" rx="4" fill="#EAE7DC"/><rect x="457" y="96" width="62" height="44" rx="4" fill="#EAE7DC"/><rect x="457" y="151" width="39" height="42" rx="4" fill="#EAE7DC"/><rect x="162" y="22" width="95" height="35" rx="3" fill="#EAE7DC"/><rect x="303" y="22" width="89" height="35" rx="3" fill="#EAE7DC"/></g><path d="M6 192h117V99c0-16 12-28 28-28h220c39 0 70 31 70 70v25c0 37-30 67-67 67H267v59h-37v-59H116v-15H6" fill="#E5E4D7"/><path d="M6 200h127V101c0-11 8-19 19-19h215c34 0 62 26 62 60v24c0 31-26 56-57 56H257v70h-18v-70H127v-12H6" fill="#A4BFB0"/><path d="M145 99h221c24 0 46 22 46 47v16c0 26-19 44-45 44H145" fill="#93B4A4"/><path d="M145 111h24v83h-24M213 83v37h9V83M271 83v37h9V83M327 83v37h9V83" fill="#E8E6D9"/><path d="M347 91c34 0 56 23 56 54v18c0 22-20 35-36 35H181" stroke="#C5D5C7" stroke-width="1.5"/><path d="M353 102c24 0 38 20 38 42M326 180h32M285 193h25M29 204h69M247 242v30" stroke="#DDE4D7" stroke-width="1.5" stroke-linecap="round"/><rect x="165" y="22" width="42" height="35" rx="2" fill="#BE8568"/><path d="M172 28v21M183 28v21M195 28v21" stroke="#D9B098"/><rect x="457" y="99" width="59" height="37" rx="2" fill="#BE8568"/><path d="M464 106h43M464 116h43M464 126h43" stroke="#D9B098"/><path d="M105 183v40M116 183v40M225 250h42M225 259h42" stroke="#637D6A" stroke-width="3"/><g fill="#839A75"><circle cx="166" cy="249" r="7"/><circle cx="188" cy="249" r="7"/><circle cx="315" cy="251" r="7"/><circle cx="337" cy="251" r="7"/><circle cx="359" cy="251" r="7"/><circle cx="381" cy="251" r="7"/><circle cx="107" cy="112" r="6"/><circle cx="107" cy="135" r="6"/></g><g stroke="#5E7960" stroke-width="1"><path d="M166 246v6M188 246v6M315 248v6M337 248v6M359 248v6M381 248v6"/></g><rect x="357" y="151" width="28" height="10" rx="5" transform="rotate(-12 357 151)" fill="#F6F0DB"/><rect x="365" y="151" width="9" height="6" rx="1" transform="rotate(-12 365 151)" fill="#B98161"/><circle cx="290" cy="49" r="3" fill="#BE8568"/><path d="M22 262h35M39 247v30" stroke="#B6BCAF" stroke-width="1"/></svg>
